/* XPM */
static char *_9f1b4b58d5e4757d29ca3a00807582a[] = {
/* columns rows colors chars-per-pixel */
"16 16 56 1 ",
"  c #7F7DDC",
". c #8778DC",
"X c #8E7FDE",
"o c #20BDD7",
"O c #33B0D8",
"+ c #3FB5DA",
"@ c #5997DA",
"# c #6D8ADB",
"$ c #639DDC",
"% c #7691DD",
"& c #46A4D9",
"* c #51A9DB",
"= c #78AAE1",
"- c #68B5E0",
"; c #0DCAD6",
": c #1ACDD8",
"> c #00D3D5",
", c #0ED5D7",
"< c #2FDBDD",
"1 c #57CDE1",
"2 c #49D7E0",
"3 c #65D1E3",
"4 c #76E1E8",
"5 c #7FE9EA",
"6 c #9D91E2",
"7 c #9F9DE5",
"8 c #A599E5",
"9 c #A7A5E7",
"0 c #ADBDEB",
"q c #BBB3EB",
"w c #BFBEED",
"e c #C3BBED",
"r c #8FDEEB",
"t c #B6E3F1",
"y c #CCEBF5",
"u c #DAE2F6",
"i c #DCEEF8",
"p c #D1F5F7",
"a c #D9F0F8",
"s c #DAF1F8",
"d c #DFF9FA",
"f c #E8E6F8",
"g c #E0EBF8",
"h c #E4E9F8",
"j c #E5EAF9",
"k c #F0EEFB",
"l c #E5F5FA",
"z c #EAF2FA",
"x c #EDF0FA",
"c c #EDF1FB",
"v c #E8F4FA",
"b c #E8F4FB",
"n c #E1F8FA",
"m c #F5F8FD",
"M c gray100",
"N c None",
/* pixels */
"NNNNN......NNNNN",
"NNN..........NNN",
"NN..XekMMkeX..NN",
"N..6kMMMMMMk6..N",
"N.Xkq888888fkX.N",
"  wM7      9Mw  ",
"##xMhuuxh0%hMx##",
"@@MMMMm=$gzMMM@@",
"&&MMMbb-*iMMMM&&",
"OOlMa++tsyysMlOO",
"oorM3oooooo1Mroo",
"N;:np2222224n:;N",
"N>><dMMMMMMd<>>N",
"NN>>,5dMMd5,>>NN",
"NNN>>>>>>>>>>NNN",
"NNNNN>>>>>>NNNNN"
};
