/* XPM */
static char *_e462752ba8a4edbb0dabbf2e57b3497[] = {
/* columns rows colors chars-per-pixel */
"33 32 100 2 ",
"   c #7F7DDC",
".  c #8778DC",
"X  c #3DAAD8",
"o  c #2AB7D7",
"O  c #20BDD7",
"+  c #33B0D8",
"@  c #3FB5DA",
"#  c #5997DA",
"$  c #509DD9",
"%  c #6C8ADB",
"&  c #6D8ADB",
"*  c #7684DB",
"=  c #6390DA",
"-  c #46A4D9",
";  c #5AA3DB",
":  c #5CAFDE",
">  c #59BFDF",
",  c #78AAE1",
"<  c #6DBFE2",
"1  c #0DCAD6",
"2  c #17C4D6",
"3  c #1BCDD8",
"4  c #00D3D5",
"5  c #04D1D5",
"6  c #1FD8DA",
"7  c #2DC1D9",
"8  c #2FDBDD",
"9  c #3FDEDF",
"0  c #51C4DE",
"q  c #42DCDF",
"w  c #57CDE1",
"e  c #49D7E0",
"r  c #50D3E0",
"t  c #6CCDE3",
"y  c #65D1E3",
"u  c #73D6E6",
"i  c #5FE3E5",
"p  c #8E80DE",
"a  c #8793DF",
"s  c #9688E0",
"d  c #9D91E2",
"f  c #9F9DE5",
"g  c #A599E5",
"h  c #87A0E2",
"j  c #80A4E1",
"k  c #8AABE3",
"l  c #98A2E4",
"z  c #9AAEE6",
"x  c #B4AAE9",
"c  c #A3B6E8",
"v  c #A9B2E8",
"b  c #B2BAEB",
"n  c #BFBEED",
"m  c #C3BBED",
"M  c #8FDEEB",
"N  c #99D7EB",
"B  c #9ED4EB",
"V  c #94DBEB",
"C  c #ACCBEC",
"Z  c #B1C7EC",
"A  c #B5C4ED",
"S  c #BAC1ED",
"D  c #BACEEF",
"F  c #A5DCEE",
"G  c #86E4EA",
"H  c #8BE1EA",
"J  c #9FEEEF",
"K  c #AFE4F0",
"L  c #B2E1F0",
"P  c #BFF4F4",
"I  c #D2CCF2",
"U  c #C4D5F1",
"Y  c #C8D3F1",
"T  c #E1DDF6",
"R  c #C2E4F3",
"E  c #CCEBF5",
"W  c #CEEAF5",
"Q  c #D3E6F5",
"!  c #D5E5F6",
"~  c #D1E8F5",
"^  c #DEEDF8",
"/  c #DCEEF8",
"(  c #C0F3F4",
")  c #D7F1F7",
"_  c #D0F6F7",
"`  c #E8E6F8",
"'  c #F0EEFB",
"]  c #EDF0FA",
"[  c #E1F8FA",
"{  c #EFFCFC",
"}  c #F6F7FD",
"|  c #F7F7FD",
" . c #F1FBFC",
".. c #F2FAFC",
"X. c #F2FAFD",
"o. c #F3FAFD",
"O. c #F5F8FD",
"+. c #F6F8FD",
"@. c gray100",
"#. c None",
/* pixels */
"#.#.#.#.#.#.#.#.#.#.#.#.#.. . . . . . . #.#.#.#.#.#.#.#.#.#.#.#.#.",
"#.#.#.#.#.#.#.#.#.#.. . . . . . . . . . . . . #.#.#.#.#.#.#.#.#.#.",
"#.#.#.#.#.#.#.#.. . . . . . . . . . . . . . . . . #.#.#.#.#.#.#.#.",
"#.#.#.#.#.#.. . . . . . . . d g g g d . . . . . . . . #.#.#.#.#.#.",
"#.#.#.#.#.. . . . . . g I } @.@.@.@.@.} I g . . . . . . #.#.#.#.#.",
"#.#.#.#.. . . . . s T @.@.@.@.@.@.@.@.@.@.@.T s . . . . . #.#.#.#.",
"#.#.#.#.. . . . x } @.@.@.@.@.@.@.@.@.@.@.@.@.} x . . . . #.#.#.#.",
"#.#.#.. . . . x @.@.@.@.@.@.@.@.@.@.@.@.@.@.@.@.@.x . . . . #.#.#.",
"#.#.. . . . g @.@.` T T T T T T T T T T T T ` @.@.@.g . . . . #.#.",
"#.#.. . . p ' @.@.g . . . . . . . . . . . . . m @.@.' p . . . #.#.",
"#.        n @.@.@.f                           f @.@.@.n         #.",
"#.* * * * } @.@.@.l * * * * * v S b a * * * * v @.@.@.} * * * * #.",
"#.& & & z @.@.@.@.Y A A A A ] @.@.@.O.c & % h O.@.@.@.@.z & & & #.",
"#.= = = D @.@.@.@.@.@.@.@.@.@.U Z D O.@.k j O.@.@.@.@.@.D = = = #.",
"#.# # # ! @.@.@.@.@.@.@.@.@.C # # # , @.O.O.@.@.@.@.@.@.! # # # #.",
"$ $ $ $ Q @.@.@.@.@.@.@.@.@.; $ $ $ $ ^ @.@.@.@.@.@.@.@.Q $ $ $ $ ",
"- - - - ~ @.@.@.@.@.@.@.@.@.: - - - - ^ @.@.@.@.@.@.@.@.Q - - - - ",
"#.X X X E @.@.@.@.@.@...R @.B X X X < @.@.@.@.@.@.@.@.@.E X X X #.",
"#.+ + + F @.@.@.@.@...> @ ..@.E N L @.@.@.@.@.@.@.@.@.@.F + + + #.",
"#.o o o t @.@.@.@...0 o o 0 ) @.@.@...V V V V K @.@.@.@.t o o o #.",
"#.O O O O ..@.@.@.u O O O O O w M y 7 O O O O w @.@.@...O O O O #.",
"#.2 2 2 2 H @.@.@.r 2 2 2 2 2 2 2 2 2 2 2 2 2 r @.@.@.H 2 2 2 2 #.",
"#.#.1 1 1 3 [ @.@.G 1 1 1 1 1 1 1 1 1 1 1 1 1 e @.@.[ 3 1 1 1 #.#.",
"#.#.5 5 5 5 q @.@.@._ ( ( ( ( ( P ( ( ( ( ( ( _ @.@.q 5 5 5 5 #.#.",
"#.#.#.4 4 4 4 i @.@.@.@.@.@.@.@.@.@.@.@.@.@.@.@.@.i 4 4 4 4 #.#.#.",
"#.#.#.#.4 4 4 4 i { @.@.@.@.@.@.@.@.@.@.@.@.@.{ i 4 4 4 4 #.#.#.#.",
"#.#.#.#.4 4 4 4 4 6 P @.@.@.@.@.@.@.@.@.@.@.P 6 4 4 4 4 4 #.#.#.#.",
"#.#.#.#.#.4 4 4 4 4 4 9 J { @.@.@.@.@.{ J 9 4 4 4 4 4 4 #.#.#.#.#.",
"#.#.#.#.#.#.4 4 4 4 4 4 4 4 8 9 9 9 8 4 4 4 4 4 4 4 4 #.#.#.#.#.#.",
"#.#.#.#.#.#.#.#.4 4 4 4 4 4 4 4 4 4 4 4 4 4 4 4 4 #.#.#.#.#.#.#.#.",
"#.#.#.#.#.#.#.#.#.#.4 4 4 4 4 4 4 4 4 4 4 4 4 #.#.#.#.#.#.#.#.#.#.",
"#.#.#.#.#.#.#.#.#.#.#.#.#.4 4 4 4 4 4 4 #.#.#.#.#.#.#.#.#.#.#.#.#."
};
