/* XPM */
static char *_b7531a792424746a6a9ef80f5a19900[] = {
/* columns rows colors chars-per-pixel */
"64 64 161 2 ",
"   c #7F7DDC",
".  c #8778DC",
"X  c #847ADC",
"o  c #3DAAD8",
"O  c #38ADD8",
"+  c #2AB7D7",
"@  c #2FB4D7",
"#  c #25BAD7",
"$  c #20BDD7",
"%  c #33B0D8",
"&  c #37BBD9",
"*  c #32BED9",
"=  c #5E93DA",
"-  c #5997DA",
";  c #559AD9",
":  c #509DD9",
">  c #6D8ADB",
",  c #688DDA",
"<  c #7187DB",
"1  c #7684DB",
"2  c #7A81DB",
"3  c #6390DA",
"4  c #639DDC",
"5  c #7F98DF",
"6  c #42A7D8",
"7  c #46A4D9",
"8  c #4BA0D9",
"9  c #48AFDA",
"0  c #44B2DA",
"q  c #4CBADD",
"w  c #59BFDF",
"e  c #5DBCDF",
"r  c #72A0DE",
"t  c #7CA7E1",
"y  c #77B7E2",
"u  c #7FB3E2",
"i  c #74BAE2",
"p  c #0DCAD6",
"a  c #08CDD5",
"s  c #12C7D6",
"d  c #17C4D6",
"f  c #1CC0D6",
"g  c #00D3D5",
"h  c #04D1D5",
"j  c #1FD8DA",
"k  c #3BC5DC",
"l  c #23D7DA",
"z  c #2FDBDD",
"x  c #4DC7DE",
"c  c #55C2DE",
"v  c #51C4DE",
"b  c #57CDE1",
"n  c #5BCBE1",
"m  c #65C4E2",
"M  c #69C1E2",
"N  c #7FCDE7",
"B  c #65D1E3",
"V  c #67DEE5",
"C  c #6DDAE5",
"Z  c #73D6E6",
"A  c #4FE1E2",
"S  c #5FE3E5",
"D  c #7FE9EA",
"F  c #8793DF",
"G  c #8296DF",
"H  c #9688E0",
"J  c #9D91E2",
"K  c #84A2E1",
"L  c #80A4E1",
"P  c #88A0E2",
"I  c #94A5E4",
"U  c #98A2E4",
"Y  c #9DACE6",
"T  c #9ABBE8",
"R  c #ACA2E7",
"E  c #B4AAE9",
"W  c #B2ACE9",
"Q  c #ACB0E8",
"!  c #ADBDEB",
"~  c #BFBEED",
"^  c #C3BBED",
"/  c #C1BCED",
"(  c #91CFE9",
")  c #9CC8EA",
"_  c #8DDFEA",
"`  c #8FDEEB",
"'  c #99D7EB",
"]  c #9BD6EB",
"[  c #92DCEB",
"{  c #ACCBEC",
"}  c #B1C7EC",
"|  c #B6C4ED",
" . c #BAC1ED",
".. c #B8C3ED",
"X. c #BCC0ED",
"o. c #A0D3EB",
"O. c #83E6EA",
"+. c #86E4EA",
"@. c #8BE1EA",
"#. c #88E3EA",
"$. c #81E8EA",
"%. c #97E6ED",
"&. c #9FE1ED",
"*. c #9DE2ED",
"=. c #99E5ED",
"-. c #9FEEEF",
";. c #A2ECEF",
":. c #ADE5F0",
">. c #B2E1F0",
",. c #B4E0F0",
"<. c #B9EAF2",
"1. c #BFF4F4",
"2. c #C1CAEF",
"3. c #C5C8EF",
"4. c #C7C6F0",
"5. c #D2CCF2",
"6. c #C6D4F1",
"7. c #C8D3F1",
"8. c #C1D8F1",
"9. c #CCDDF3",
"0. c #D2D9F4",
"q. c #E1DDF6",
"w. c #C7EEF5",
"e. c #CEEAF5",
"r. c #D3E6F5",
"t. c #D2E7F5",
"y. c #D4E6F5",
"u. c #D5E5F6",
"i. c #DAE2F6",
"p. c #D1E8F5",
"a. c #D0E9F5",
"s. c #C1F2F4",
"d. c #C0F3F4",
"f. c #D7F1F7",
"g. c #D4F3F7",
"h. c #D8F1F7",
"j. c #DFF9FA",
"k. c #E5E8F8",
"l. c #EFEFFB",
"z. c #F0EEFB",
"x. c #E3F7FA",
"c. c #E5F5FA",
"v. c #E7F4FA",
"b. c #E4F6FA",
"n. c #E9F3FA",
"m. c #EAF2FA",
"M. c #EDF0FA",
"N. c #EEF0FA",
"B. c #E1F8FA",
"V. c #E0F9FA",
"C. c #EFFCFC",
"Z. c #F7F7FD",
"A. c #F3F9FD",
"S. c #F1FBFC",
"D. c #F2FAFC",
"F. c #F2FAFD",
"G. c #F3FAFD",
"H. c #F5F8FD",
"J. c #F6F8FD",
"K. c gray100",
"L. c None",
/* pixels */
"L.L.L.L.L.L.L.L.L.L.L.L.L.L.L.L.L.L.L.L.L.L.L.L.L.L.L.. . . . . . . . . . L.L.L.L.L.L.L.L.L.L.L.L.L.L.L.L.L.L.L.L.L.L.L.L.L.L.L.",
"L.L.L.L.L.L.L.L.L.L.L.L.L.L.L.L.L.L.L.L.L.L.L.. . . . . . . . . . . . . . . . . . L.L.L.L.L.L.L.L.L.L.L.L.L.L.L.L.L.L.L.L.L.L.L.",
"L.L.L.L.L.L.L.L.L.L.L.L.L.L.L.L.L.L.L.L.. . . . . . . . . . . . . . . . . . . . . . . . L.L.L.L.L.L.L.L.L.L.L.L.L.L.L.L.L.L.L.L.",
"L.L.L.L.L.L.L.L.L.L.L.L.L.L.L.L.L.L.. . . . . . . . . . . . . . . . . . . . . . . . . . . . L.L.L.L.L.L.L.L.L.L.L.L.L.L.L.L.L.L.",
"L.L.L.L.L.L.L.L.L.L.L.L.L.L.L.L.. . . . . . . . . . . . . . . . . . . . . . . . . . . . . . . . L.L.L.L.L.L.L.L.L.L.L.L.L.L.L.L.",
"L.L.L.L.L.L.L.L.L.L.L.L.L.L.. . . . . . . . . . . . . . . . . . . . . . . . . . . . . . . . . . . . L.L.L.L.L.L.L.L.L.L.L.L.L.L.",
"L.L.L.L.L.L.L.L.L.L.L.L.L.. . . . . . . . . . . . . . . . . . . . . . . . . . . . . . . . . . . . . . L.L.L.L.L.L.L.L.L.L.L.L.L.",
"L.L.L.L.L.L.L.L.L.L.L.L.. . . . . . . . . . . . . . J E ^ q.q.q.q.q.q.^ E J . . . . . . . . . . . . . . L.L.L.L.L.L.L.L.L.L.L.L.",
"L.L.L.L.L.L.L.L.L.L.L.. . . . . . . . . . . . R 5.Z.K.K.K.K.K.K.K.K.K.K.K.K.Z.5.R . . . . . . . . . . . . L.L.L.L.L.L.L.L.L.L.L.",
"L.L.L.L.L.L.L.L.L.L.. . . . . . . . . . . E l.K.K.K.K.K.K.K.K.K.K.K.K.K.K.K.K.K.K.z.E . . . . . . . . . . . L.L.L.L.L.L.L.L.L.L.",
"L.L.L.L.L.L.L.L.L.. . . . . . . . . . E l.K.K.K.K.K.K.K.K.K.K.K.K.K.K.K.K.K.K.K.K.K.K.z.E . . . . . . . . . . L.L.L.L.L.L.L.L.L.",
"L.L.L.L.L.L.L.L.. . . . . . . . . H q.K.K.K.K.K.K.K.K.K.K.K.K.K.K.K.K.K.K.K.K.K.K.K.K.K.K.q.H . . . . . . . . . L.L.L.L.L.L.L.L.",
"L.L.L.L.L.L.L.. . . . . . . . . R Z.K.K.K.K.K.K.K.K.K.K.K.K.K.K.K.K.K.K.K.K.K.K.K.K.K.K.K.K.Z.R . . . . . . . . . L.L.L.L.L.L.L.",
"L.L.L.L.L.L.. . . . . . . . . E K.K.K.K.K.K.K.K.K.K.K.K.K.K.K.K.K.K.K.K.K.K.K.K.K.K.K.K.K.K.K.K.E . . . . . . . . . L.L.L.L.L.L.",
"L.L.L.L.L.. . . . . . . . . E K.K.K.K.K.K.K.K.K.K.K.K.K.K.K.K.K.K.K.K.K.K.K.K.K.K.K.K.K.K.K.K.K.K.E . . . . . . . . . L.L.L.L.L.",
"L.L.L.L.L.. . . . . . . . E K.K.K.K.K.K.K.K.K.K.K.K.K.K.K.K.K.K.K.K.K.K.K.K.K.K.K.K.K.K.K.K.K.K.K.K.E . . . . . . . . L.L.L.L.L.",
"L.L.L.L.. . . . . . . . R K.K.K.K.K.K.K.K.K.K.K.K.K.K.K.K.K.K.K.K.K.K.K.K.K.K.K.K.K.K.K.K.K.K.K.K.K.K.R . . . . . . . . L.L.L.L.",
"L.L.L.L.. . . . . . . H Z.K.K.K.K.q.^ ^ ^ ^ ^ ^ ^ ^ ^ ^ ^ ^ ^ ^ ^ ^ ^ ^ ^ ^ ^ ^ ^ ^ ^ ^ z.K.K.K.K.K.K.Z.H . . . . . . . L.L.L.L.",
"L.L.L.. . . . . . . . q.K.K.K.K.K.^ . . . . . . . . . . . . . . . . . . . . . . . . . . . 5.K.K.K.K.K.K.q.. . . . . . . . L.L.L.",
"L.L.L.. X X X . X X W K.K.K.K.K.K./ X X X X X X X X X X X X X X X X X X X X X X X X X X X . l.K.K.K.K.K.K.W X X X X X X . L.L.L.",
"L.L.  X   X     X   l.K.K.K.K.K.K./   X                       X                             3.K.K.K.K.K.K.l.X         X   X L.L.",
"L.L.1 2 1 1 2 1 1 Q K.K.K.K.K.K.K.~ 1 1 1   1 1 1   1   1   1 1 1   1 1   1 1   1   1 1   1 3.K.K.K.K.K.K.K.Q 1 1   1 1 1 1 L.L.",
"L.L.1 1 1 1 1 1 1 N.K.K.K.K.K.K.K. .1 1 1 1 1 1 1 1 1 1 1 1 1 F I 1 1 1 1 1 1 1 1 1 1 1 1 1 k.K.K.K.K.K.K.K.N.1 1 1 1 1 1 1 L.L.",
"L.< < < < < < < Y K.K.K.K.K.K.K.K...< < < < < 1 < < < < I 0.K.K.K.K.l.3.F < < < < < < < < I K.K.K.K.K.K.K.K.K.Y < < < < < < < L.",
"L.> > > > > > > 7.K.K.K.K.K.K.K.K...> > > > > > > > 5 i.K.K.K.K.K.K.K.K.Z.! > > > > > > P Z.K.K.K.K.K.K.K.K.K.7.> > > > > > > L.",
"L., , , , , , , J.K.K.K.K.K.K.K.K.K.K.K.K.K.K.K.K.K.K.K.K.K.K.K.K.K.K.K.K.K.6., , , , K Z.K.K.K.K.K.K.K.K.K.K.J., , , , , , , L.",
"L.3 3 3 3 3 3 L K.K.K.K.K.K.K.K.K.K.K.K.K.K.K.K.K.K.K.K.K.K.K.K.K.K.K.K.K.K.K.} 3 3 t J.K.K.K.K.K.K.K.K.K.K.K.K.L 3 3 3 3 3 3 L.",
"= = = = = = = T K.K.K.K.K.K.K.K.K.K.K.K.K.K.K.K.K.K.K.K.K.9.t = = = T Z.K.K.K.K.r t Z.K.K.K.K.K.K.K.K.K.K.K.K.K.T = = = = = = = ",
"- - - - - - - { K.K.K.K.K.K.K.K.K.K.K.K.K.K.K.K.K.K.K.K.8.- - - - - - 4 H.K.K.K.y.Z.K.K.K.K.K.K.K.K.K.K.K.K.K.K.{ - - - - - - - ",
"; ; ; ; ; ; ; y.K.K.K.K.K.K.K.K.K.K.K.K.K.K.K.K.K.K.K.n.; ; ; ; ; ; ; ; u K.K.K.K.K.K.K.K.K.K.K.K.K.K.K.K.K.K.K.y.; ; ; ; ; ; ; ",
": : : : : : : y.K.K.K.K.K.K.K.K.K.K.K.K.K.K.K.K.K.K.K.) : : : : : : : : : n.K.K.K.K.K.K.K.K.K.K.K.K.K.K.K.K.K.K.y.: : : : : : : ",
"8 8 8 8 8 8 8 r.K.K.K.K.K.K.K.K.K.K.K.K.K.K.K.K.K.K.K.y 8 8 8 8 8 8 8 8 8 t.K.K.K.K.K.K.K.K.K.K.K.K.K.K.K.K.K.K.r.8 8 8 8 8 8 8 ",
"7 7 7 7 7 7 7 r.K.K.K.K.K.K.K.K.K.K.K.K.K.K.K.K.K.K.K.i 7 7 7 7 7 7 7 7 7 a.K.K.K.K.K.K.K.K.K.K.K.K.K.K.K.K.K.K.t.7 7 7 7 7 7 7 ",
"6 6 6 6 6 6 6 p.K.K.K.K.K.K.K.K.K.K.K.K.K.K.K.K.K.K.K.o.6 6 6 6 6 6 6 6 6 H.K.K.K.K.K.K.K.K.K.K.K.K.K.K.K.K.K.K.a.6 6 6 6 6 6 6 ",
"o o o o o o o e.K.K.K.K.K.K.K.K.K.K.K.K.K.K.K.K.K.K.K.c.9 o o o o o o o ( K.K.K.K.K.K.K.K.K.K.K.K.K.K.K.K.K.K.K.e.o o o o o o o ",
"O O O O O % % ( K.K.K.K.K.K.K.K.K.K.K.K.K.K.J.M A.K.K.K.,.0 O O O O O e D.K.K.K.K.K.K.K.K.K.K.K.K.K.K.K.K.K.K.K.] O O O O O O O ",
"% % % % @ % % ( K.K.K.K.K.K.K.K.K.K.K.K.K.A.c % ] K.K.K.K.c.N q % m >.K.K.K.K.K.K.K.K.K.K.K.K.K.K.K.K.K.K.K.K.K.N % % % % % % % ",
"L.@ @ @ @ @ @ c K.K.K.K.K.K.K.K.K.K.K.K.A.c @ @ @ f.K.K.K.K.K.K.K.K.K.K.K.K.K.K.K.K.K.K.K.K.K.K.K.K.K.K.K.K.K.K.c @ @ @ @ @ @ L.",
"L.+ + + + + + + D.K.K.K.K.K.K.K.K.K.K.A.v + + + + & f.K.K.K.K.K.K.K.K.K.K.K.K.K.K.K.K.K.K.K.K.K.K.K.K.K.K.K.K.D.+ + + + + + + L.",
"L.# # # # # # # :.K.K.K.K.K.K.K.K.K.S.x # # # # # # * *.K.K.K.K.K.K.K.K.b.n # # # # # # # # [ K.K.K.K.K.K.K.K.:.# # # # # # # L.",
"L.$ $ $ $ $ $ $ B K.K.K.K.K.K.K.K.K.b $ $ $ $ $ $ $ $ $ k *.w.K.K.b.<.Z $ $ $ $ $ $ $ $ $ $ _ K.K.K.K.K.K.K.K.B $ $ $ $ $ $ $ L.",
"L.L.f f f f f f f b.K.K.K.K.K.K.K.g.f f f f f f f f f f f f f f f f f f f f f f f f f f f f _ K.K.K.K.K.K.K.b.f f f f f f f L.L.",
"L.L.d d d d d d d C K.K.K.K.K.K.K.=.d d d d d d d d d d d d d d d d d d d d d d d d d d d d _ K.K.K.K.K.K.K.C d d d d d d d L.L.",
"L.L.s s s s s s s s B.K.K.K.K.K.K.%.s s s s s s s s s s s s s s s s s s s s s s s s s s s s #.K.K.K.K.K.K.B.s s s s s s s s L.L.",
"L.L.L.p p p p p p p V K.K.K.K.K.K.B.p p p p p p p p p p p p p p p p p p p p p p p p p p p p #.K.K.K.K.K.K.V p p p p p p p L.L.L.",
"L.L.L.a a a a a a a a s.K.K.K.K.K.K.;.a a a a a a a a a a a a a a a a a a a a a a a a a a a $.K.K.K.K.K.s.a a a a a a a a L.L.L.",
"L.L.L.L.h h h h h h h l C.K.K.K.K.K.K.j.$.$.$.$.$.$.$.$.$.$.$.$.D $.$.$.$.$.$.$.$.$.$.$.$.$.1.K.K.K.K.C.l h h h h h h h L.L.L.L.",
"L.L.L.L.g g g g g g g g A K.K.K.K.K.K.K.K.K.K.K.K.K.K.K.K.K.K.K.K.K.K.K.K.K.K.K.K.K.K.K.K.K.K.K.K.K.K.A g g g g g g g g L.L.L.L.",
"L.L.L.L.L.g g g g g g g g S K.K.K.K.K.K.K.K.K.K.K.K.K.K.K.K.K.K.K.K.K.K.K.K.K.K.K.K.K.K.K.K.K.K.K.K.S g g g g g g g g L.L.L.L.L.",
"L.L.L.L.L.g g g g g g g g g S K.K.K.K.K.K.K.K.K.K.K.K.K.K.K.K.K.K.K.K.K.K.K.K.K.K.K.K.K.K.K.K.K.K.S g g g g g g g g g L.L.L.L.L.",
"L.L.L.L.L.L.g g g g g g g g g S K.K.K.K.K.K.K.K.K.K.K.K.K.K.K.K.K.K.K.K.K.K.K.K.K.K.K.K.K.K.K.K.S g g g g g g g g g L.L.L.L.L.L.",
"L.L.L.L.L.L.L.g g g g g g g g g A C.K.K.K.K.K.K.K.K.K.K.K.K.K.K.K.K.K.K.K.K.K.K.K.K.K.K.K.K.C.A g g g g g g g g g L.L.L.L.L.L.L.",
"L.L.L.L.L.L.L.L.g g g g g g g g g j 1.K.K.K.K.K.K.K.K.K.K.K.K.K.K.K.K.K.K.K.K.K.K.K.K.K.K.1.j g g g g g g g g g L.L.L.L.L.L.L.L.",
"L.L.L.L.L.L.L.L.L.g g g g g g g g g g S j.K.K.K.K.K.K.K.K.K.K.K.K.K.K.K.K.K.K.K.K.K.K.j.S g g g g g g g g g g L.L.L.L.L.L.L.L.L.",
"L.L.L.L.L.L.L.L.L.L.g g g g g g g g g g g S j.K.K.K.K.K.K.K.K.K.K.K.K.K.K.K.K.K.K.j.S g g g g g g g g g g g L.L.L.L.L.L.L.L.L.L.",
"L.L.L.L.L.L.L.L.L.L.L.g g g g g g g g g g g g A -.C.K.K.K.K.K.K.K.K.K.K.K.K.C.-.A g g g g g g g g g g g g L.L.L.L.L.L.L.L.L.L.L.",
"L.L.L.L.L.L.L.L.L.L.L.L.g g g g g g g g g g g g g g z S D 1.1.1.1.1.1.D S z g g g g g g g g g g g g g g L.L.L.L.L.L.L.L.L.L.L.L.",
"L.L.L.L.L.L.L.L.L.L.L.L.L.g g g g g g g g g g g g g g g g g g g g g g g g g g g g g g g g g g g g g g L.L.L.L.L.L.L.L.L.L.L.L.L.",
"L.L.L.L.L.L.L.L.L.L.L.L.L.L.g g g g g g g g g g g g g g g g g g g g g g g g g g g g g g g g g g g g L.L.L.L.L.L.L.L.L.L.L.L.L.L.",
"L.L.L.L.L.L.L.L.L.L.L.L.L.L.L.L.g g g g g g g g g g g g g g g g g g g g g g g g g g g g g g g g L.L.L.L.L.L.L.L.L.L.L.L.L.L.L.L.",
"L.L.L.L.L.L.L.L.L.L.L.L.L.L.L.L.L.L.g g g g g g g g g g g g g g g g g g g g g g g g g g g g L.L.L.L.L.L.L.L.L.L.L.L.L.L.L.L.L.L.",
"L.L.L.L.L.L.L.L.L.L.L.L.L.L.L.L.L.L.L.L.g g g g g g g g g g g g g g g g g g g g g g g g L.L.L.L.L.L.L.L.L.L.L.L.L.L.L.L.L.L.L.L.",
"L.L.L.L.L.L.L.L.L.L.L.L.L.L.L.L.L.L.L.L.L.L.L.g g g g g g g g g g g g g g g g g g L.L.L.L.L.L.L.L.L.L.L.L.L.L.L.L.L.L.L.L.L.L.L.",
"L.L.L.L.L.L.L.L.L.L.L.L.L.L.L.L.L.L.L.L.L.L.L.L.L.L.L.g g g g g g g g g g L.L.L.L.L.L.L.L.L.L.L.L.L.L.L.L.L.L.L.L.L.L.L.L.L.L.L."
};
