<?xml version="1.0" encoding="utf-8"?>
<!-- Generator: Adobe Illustrator 16.0.0, SVG Export Plug-In . SVG Version: 6.00 Build 0)  -->
<!DOCTYPE svg PUBLIC "-//W3C//DTD SVG 1.1//EN" "http://www.w3.org/Graphics/SVG/1.1/DTD/svg11.dtd">
<svg version="1.1"
	 id="svg3039" inkscape:export-xdpi="12" inkscape:export-filename="/home/orion/projects2/bitcoin/tx_mined.png" sodipodi:docname="inout3.svg" inkscape:export-ydpi="12" inkscape:version="0.48.0 r9654" xmlns:cc="http://creativecommons.org/ns#" xmlns:inkscape="http://www.inkscape.org/namespaces/inkscape" xmlns:dc="http://purl.org/dc/elements/1.1/" xmlns:rdf="http://www.w3.org/1999/02/22-rdf-syntax-ns#" xmlns:sodipodi="http://sodipodi.sourceforge.net/DTD/sodipodi-0.dtd" xmlns:svg="http://www.w3.org/2000/svg"
	 xmlns="http://www.w3.org/2000/svg" xmlns:xlink="http://www.w3.org/1999/xlink" x="0px" y="0px" width="120px" height="120px"
	 viewBox="0 0 120 120" enable-background="new 0 0 120 120" xml:space="preserve">
<sodipodi:namedview  id="namedview3041" inkscape:window-maximized="1" inkscape:window-y="25" inkscape:window-height="1127" inkscape:window-x="0" inkscape:window-width="1920" inkscape:pageopacity="0" inkscape:current-layer="layer7" inkscape:pageshadow="2" showgrid="false" bordercolor="#666666" inkscape:cy="67.287943" inkscape:zoom="1" inkscape:cx="87.12655" pagecolor="#ffffff" borderopacity="1" objecttolerance="10" gridtolerance="10" guidetolerance="10">
	</sodipodi:namedview>
<g id="layer2" inkscape:groupmode="layer" inkscape:label="base" display="none">
	<path id="path3053" sodipodi:nodetypes="cccccccccccccc" inkscape:connector-curvature="0" display="inline" fill="#AFAFAF" d="
		M45.375,17c-13.984,0.241-24.968,3.29-37.438,9.594c-8.992,21.872-6.681,46.393-1.969,69c26.191,13.153,55.595,12.978,81.75-0.219
		c3.852-9.729,1.6-12.8,2.375-23.156c-6.176,0.205-12.964-4.531-15.906,3.031c-1.484,4.473,1.932,7.396-5.031,8.094
		c-16.132,5.193-31.435,5.797-47.281-1.062C19.715,68.368,18.6,53.657,22.5,40c16.868-6.642,33.121-6.12,50.031-0.156
		c1.285,5.855,1.574,5.763,2.375,11.688c5.558,0.439,14.738,1.804,16.406-5.531c0.541-9.992-1.94-14.375-4.125-20.312
		C73.71,21.035,59.804,16.699,45.375,17z"/>
</g>
<g id="layer3" inkscape:groupmode="layer" inkscape:label="arrow_out" display="none">
	<path id="path3844" sodipodi:nodetypes="cccccscccc" inkscape:connector-curvature="0" display="inline" fill="#6E6E6E" d="
		M63.983,65.481l0.269-9.515l36.16-0.194l-7.414-8.758l3.799-7.573c0,0,23.438,20.797,22.5,21.185
		c-0.938,0.389-23.17,22.738-23.17,22.738l-3.129-8.932l7.549-8.564L63.983,65.481z"/>
</g>
<g id="layer4" inkscape:groupmode="layer" inkscape:label="arrow_in" display="none">
	<path id="path4080" sodipodi:nodetypes="cccccscccc" inkscape:connector-curvature="0" display="inline" fill="#6E6E6E" d="
		M99.287,65.481l-0.268-9.515l-36.161-0.194l7.769-6.283l-4.152-9.28c0,0-23.438,20.029-22.5,20.417
		c0.938,0.389,23.17,20.971,23.17,20.971l3.482-9.639l-7.902-6.09L99.287,65.481z"/>
</g>
<linearGradient id="SVGID_1_" gradientUnits="userSpaceOnUse" x1="59.9995" y1="17.5254" x2="59.9995" y2="83.069">
	<stop  offset="0" style="stop-color:#00D3D5"/>
	<stop  offset="1" style="stop-color:#8778DC"/>
</linearGradient>
<path fill-rule="evenodd" clip-rule="evenodd" fill="url(#SVGID_1_)" d="M15.382,27.883c-0.5-0.591-0.88-1.025-1.235-1.472
	c-1.114-1.373-1.046-3.092,0.187-4.347c0.736-0.748,1.487-1.491,2.257-2.192c1.343-1.213,2.998-1.209,4.352-0.038
	c0.438,0.373,0.873,0.755,1.3,1.117c4.721-3.74,10.082-6.395,15.124-9.56c2.024-1.267,4.086-2.471,6.138-3.695
	c1.315-0.788,2.657-0.656,3.607,0.332c0.945,0.984,1.019,2.341,0.131,3.6c-4.05,5.723-8.108,11.439-12.176,17.147
	c-0.457,0.641-1.025,1.193-1.483,1.839c-0.137,0.186-0.177,0.617-0.05,0.788c0.725,0.985,1.601,1.861,2.257,2.898
	c2.271,3.606,5.328,6.528,8.298,9.521c4.714,4.739,9.441,9.471,14.174,14.196c1.692,1.689,1.746,1.721,3.395,0.065
	c6.532-6.544,13.037-13.106,19.53-19.68c0.51-0.515,0.905-1.16,1.328-1.755c1.364-1.892,2.726-3.782,4.026-5.598
	c-4.538-6.383-9.137-12.861-13.739-19.341c-0.889-1.254-0.874-2.619,0.019-3.618c0.915-1.037,2.289-1.205,3.652-0.396
	c5.972,3.573,11.938,7.154,17.885,10.764c1.007,0.607,1.918,1.382,2.825,2.129c0.404,0.335,0.652,0.37,1.049-0.016
	c0.764-0.747,1.532-1.518,2.723-1.59c0.915-0.054,1.713,0.21,2.378,0.827c0.791,0.736,1.569,1.479,2.327,2.243
	c1.243,1.266,1.305,2.974,0.192,4.347c-1.177,1.444-1.161,1.434,0.204,2.745c3.151,3.046,6.3,6.101,9.441,9.158
	c1.599,1.557,1.669,3.474,0.16,5.095c-1.774,1.896-3.584,3.761-5.415,5.605c-1.405,1.415-3.432,1.449-4.881,0.062
	c-3.247-3.096-6.452-6.246-9.678-9.373c-0.22-0.217-0.465-0.415-0.609-0.549c-4.194,3.39-8.481,6.573-12.109,10.548
	c-4.814,5.277-9.824,10.362-14.746,15.531c-0.324,0.347-0.599,0.72-0.957,1.155c0.656,0.625,1.288,1.193,1.898,1.803
	c4.377,4.42,8.764,8.838,13.121,13.273c2.434,2.486,4.812,5.025,7.234,7.537c4.644,4.787,9.311,9.566,13.951,14.363
	c1.854,1.908,1.819,4.096-0.064,5.961c-0.771,0.76-1.549,1.5-2.326,2.244c-1.771,1.689-4.027,1.67-5.728-0.08
	c-8.335-8.598-16.663-17.191-24.978-25.814c-3.483-3.6-6.924-7.254-10.424-10.928c-0.055,0.033-0.199,0.123-0.313,0.252
	c-6.024,6.332-12.023,12.693-18.074,19.01c-5.544,5.773-11.134,11.514-16.702,17.268c-1.975,2.037-4.147,2.066-6.185,0.072
	c-0.701-0.674-1.392-1.355-2.09-2.029c-1.89-1.854-1.906-4.053-0.052-5.965c4.758-4.922,9.51-9.859,14.284-14.789
	c5.73-5.918,11.461-11.844,17.219-17.734c1.266-1.295,2.642-2.48,3.965-3.711c0.245-0.232,0.501-0.459,0.84-0.758
	c-2.083-2.277-4.046-4.536-6.115-6.687c-4.562-4.721-9.149-9.415-13.781-14.062c-1.16-1.168-2.548-2.098-3.843-3.128
	c-1.366-1.099-2.739-2.177-4.196-3.34c-0.098,0.092-0.331,0.29-0.548,0.503c-3.169,3.066-6.338,6.139-9.499,9.217
	c-1.675,1.625-3.634,1.64-5.266-0.02c-1.718-1.73-3.409-3.501-5.103-5.257c-1.678-1.74-1.64-3.699,0.114-5.396
	c3.408-3.311,6.818-6.624,10.23-9.926C14.958,28.132,15.129,28.043,15.382,27.883z"/>
</svg>
